<svg width="83" height="88" viewBox="0 0 83 88" fill="none" xmlns="http://www.w3.org/2000/svg">
<path opacity="0.4" fill-rule="evenodd" clip-rule="evenodd" d="M75.369 38.6131C75.369 38.6131 43.1335 6.37515 41.7193 4.96093C40.3051 3.54672 41.7193 2.13251 41.7193 2.13251L43.8406 0.011187C55.5374 11.708 67.2756 23.3659 78.9 35.1348L78.929 35.1646C78.942 35.178 78.9572 35.1939 78.9744 35.212C78.9871 35.2253 79.0008 35.2398 79.0156 35.2556C79.0852 35.3301 79.1783 35.4322 79.2893 35.5602C79.5107 35.8157 79.8066 36.178 80.132 36.6334C80.7758 37.5345 81.572 38.8518 82.1114 40.4684C82.6542 42.0953 82.9518 44.074 82.5212 46.2308C82.087 48.4057 80.9464 50.5867 78.8874 52.6456L43.8406 87.6924C43.8406 87.6924 43.4902 87.3414 41.7366 85.5878C40.3337 84.1849 41.7353 82.7833 41.7353 82.7833L75.3802 49.1384C76.8259 47.6927 77.437 46.3682 77.659 45.2566C77.8845 44.1267 77.7428 43.0376 77.4082 42.0346C77.0701 41.0214 76.5508 40.147 76.0984 39.5139C75.8757 39.2021 75.6784 38.9617 75.5436 38.8062C75.4764 38.7287 75.4256 38.6733 75.396 38.6415C75.3822 38.6268 75.373 38.6173 75.369 38.6131Z" fill="white"/>
</svg>
