<svg width="90" height="100" viewBox="0 0 90 100" fill="none" xmlns="http://www.w3.org/2000/svg">
<circle opacity="0.12" cx="45" cy="50" r="34.5" stroke="white"/>
<path fill-rule="evenodd" clip-rule="evenodd" d="M45 70C56.0457 70 65 61.0457 65 50C65 38.9543 56.0457 30 45 30C33.9543 30 25 38.9543 25 50C25 61.0457 33.9543 70 45 70ZM53.5102 43.5452V40H36.4897V43.5452H42.8787V46.0032C38.3915 46.2658 35.0251 47.3446 35.0001 48.6376L35 51.3334C35.0249 52.6264 38.3915 53.7052 42.8787 53.9679V60H47.1211V53.9679C51.6084 53.7052 54.9748 52.6264 54.9999 51.3334L55 48.6376C54.975 47.3446 51.6084 46.2658 47.1211 46.0032V43.5452H53.5102ZM54.7707 49.9855C53.7911 51.2037 49.7886 52.116 45 52.116C40.2113 52.116 36.2087 51.2037 35.2292 49.9855C36.0599 48.9525 39.0644 48.1394 42.8787 47.9161V50.4896C43.5625 50.5297 44.2721 50.5507 45 50.5507C45.7278 50.5507 46.4375 50.5297 47.1211 50.4896V47.9161C50.9355 48.1394 53.94 48.9525 54.7707 49.9855Z" fill="white"/>
<circle cx="10" cy="50" r="4.5" fill="white" stroke="white"/>
<circle cx="80" cy="50" r="4.5" fill="white" stroke="white"/>
<circle cx="45" cy="85" r="4.5" transform="rotate(-90 45 85)" fill="white" stroke="white"/>
<circle cx="45" cy="15" r="4.5" transform="rotate(-90 45 15)" fill="white" stroke="white"/>
</svg>
