<svg width="195" height="190" viewBox="0 0 195 190" fill="none" xmlns="http://www.w3.org/2000/svg">
<rect x="43.875" y="31.2188" width="106.469" height="114.75" stroke="url(#paint0_linear_5004_33357)" stroke-width="2.53125" stroke-miterlimit="10"/>
<path d="M89.8583 51.019L88.6491 51.3926L89.8583 51.019ZM89.859 59.1955L91.0683 59.5689L89.859 59.1955ZM76.6377 70.209C83.4265 70.209 89.1659 65.73 91.0683 59.5689L88.6497 58.8221C87.0656 63.9524 82.2851 67.6777 76.6377 67.6777V70.209ZM61.5371 55.1084C61.5371 63.4482 68.2979 70.209 76.6377 70.209V67.6777C69.6958 67.6777 64.0684 62.0503 64.0684 55.1084H61.5371ZM76.6377 40.0078C68.2979 40.0078 61.5371 46.7686 61.5371 55.1084H64.0684C64.0684 48.1665 69.6958 42.5391 76.6377 42.5391V40.0078ZM91.0675 50.6454C89.1644 44.4856 83.4256 40.0078 76.6377 40.0078V42.5391C82.2843 42.5391 87.0643 46.2634 88.6491 51.3926L91.0675 50.6454ZM129.982 50.3828H90.6905V52.9141H129.982V50.3828ZM132.091 57.7222V52.4922H129.56V57.7222H132.091ZM128.209 59.8315H129.982V57.3003H128.209V59.8315ZM126.1 59.4097V61.1831H128.631V59.4097H126.1ZM126.522 60.7612H125.904V63.2925H126.522V60.7612ZM126.326 61.1831V59.4097H123.794V61.1831H126.326ZM122.445 59.8315H124.216V57.3003H122.445V59.8315ZM122.867 63.4878V59.4097H120.335V63.4878H122.867ZM117.833 65.5972H120.757V63.0659H117.833V65.5972ZM115.724 59.4097V63.4878H118.255V59.4097H115.724ZM90.6913 59.8315H116.146V57.3003H90.6913V59.8315ZM118.255 59.4097C118.255 58.2447 117.311 57.3003 116.146 57.3003V59.8315C115.913 59.8315 115.724 59.6427 115.724 59.4097H118.255ZM117.833 63.0659C118.066 63.0659 118.255 63.2548 118.255 63.4878H115.724C115.724 64.6528 116.668 65.5972 117.833 65.5972V63.0659ZM122.445 57.3003C121.28 57.3003 120.335 58.2447 120.335 59.4097H122.867C122.867 59.6427 122.678 59.8315 122.445 59.8315V57.3003ZM126.326 59.4097C126.326 58.2447 125.381 57.3003 124.216 57.3003V59.8315C123.983 59.8315 123.794 59.6427 123.794 59.4097H126.326ZM125.904 60.7612C126.137 60.7612 126.326 60.9501 126.326 61.1831H123.794C123.794 62.3481 124.739 63.2925 125.904 63.2925V60.7612ZM126.1 61.1831C126.1 60.9501 126.289 60.7612 126.522 60.7612V63.2925C127.687 63.2925 128.631 62.3481 128.631 61.1831H126.1ZM128.209 57.3003C127.044 57.3003 126.1 58.2447 126.1 59.4097H128.631C128.631 59.6427 128.442 59.8315 128.209 59.8315V57.3003ZM129.982 52.9141C129.749 52.9141 129.56 52.7252 129.56 52.4922H132.091C132.091 51.3272 131.147 50.3828 129.982 50.3828V52.9141ZM88.6491 51.3926C88.9159 52.2562 89.7151 52.9141 90.6905 52.9141V50.3828C90.896 50.3828 91.028 50.5174 91.0675 50.6454L88.6491 51.3926ZM129.56 57.7222C129.56 57.4892 129.749 57.3003 129.982 57.3003V59.8315C131.147 59.8315 132.091 58.8871 132.091 57.7222H129.56ZM120.335 63.4878C120.335 63.2548 120.524 63.0659 120.757 63.0659V65.5972C121.922 65.5972 122.867 64.6528 122.867 63.4878H120.335ZM91.0683 59.5689C91.0288 59.6969 90.8968 59.8315 90.6913 59.8315V57.3003C89.7157 57.3003 88.9164 57.9584 88.6497 58.8221L91.0683 59.5689Z" fill="url(#paint1_linear_5004_33357)"/>
<ellipse cx="74.0412" cy="54.8771" rx="3.54897" ry="3.54897" stroke="url(#paint2_linear_5004_33357)" stroke-width="2.53125" stroke-miterlimit="10"/>
<path d="M89.8564 84.6049L88.6471 84.9785L89.8564 84.6049ZM89.8571 92.7814L91.0664 93.1548L89.8571 92.7814ZM76.6357 103.795C83.4246 103.795 89.164 99.3159 91.0664 93.1548L88.6478 92.408C87.0637 97.5383 82.2831 101.264 76.6357 101.264V103.795ZM61.5352 88.6943C61.5352 97.0342 68.2959 103.795 76.6357 103.795V101.264C69.6939 101.264 64.0664 95.6362 64.0664 88.6943H61.5352ZM76.6357 73.5938C68.2959 73.5938 61.5352 80.3545 61.5352 88.6943H64.0664C64.0664 81.7525 69.6939 76.125 76.6357 76.125V73.5938ZM91.0656 84.2313C89.1624 78.0715 83.4237 73.5938 76.6357 73.5938V76.125C82.2823 76.125 87.0624 79.8493 88.6471 84.9785L91.0656 84.2313ZM129.98 83.9688H90.6886V86.5H129.98V83.9688ZM132.089 91.3081V86.0781H129.558V91.3081H132.089ZM128.208 93.4175H129.98V90.8862H128.208V93.4175ZM126.098 92.9956V94.769H128.629V92.9956H126.098ZM126.52 94.3472H125.902V96.8784H126.52V94.3472ZM126.324 94.769V92.9956H123.792V94.769H126.324ZM122.443 93.4175H124.214V90.8862H122.443V93.4175ZM122.865 97.0737V92.9956H120.333V97.0737H122.865ZM117.831 99.1831H120.755V96.6519H117.831V99.1831ZM115.722 92.9956V97.0737H118.253V92.9956H115.722ZM90.6893 93.4175H116.144V90.8862H90.6893V93.4175ZM118.253 92.9956C118.253 91.8306 117.309 90.8862 116.144 90.8862V93.4175C115.911 93.4175 115.722 93.2286 115.722 92.9956H118.253ZM117.831 96.6519C118.064 96.6519 118.253 96.8407 118.253 97.0737H115.722C115.722 98.2387 116.666 99.1831 117.831 99.1831V96.6519ZM122.443 90.8862C121.278 90.8862 120.333 91.8306 120.333 92.9956H122.865C122.865 93.2286 122.676 93.4175 122.443 93.4175V90.8862ZM126.324 92.9956C126.324 91.8306 125.379 90.8862 124.214 90.8862V93.4175C123.981 93.4175 123.792 93.2286 123.792 92.9956H126.324ZM125.902 94.3472C126.135 94.3472 126.324 94.5361 126.324 94.769H123.792C123.792 95.934 124.737 96.8784 125.902 96.8784V94.3472ZM126.098 94.769C126.098 94.536 126.287 94.3472 126.52 94.3472V96.8784C127.685 96.8784 128.629 95.934 128.629 94.769H126.098ZM128.208 90.8862C127.043 90.8862 126.098 91.8306 126.098 92.9956H128.629C128.629 93.2286 128.441 93.4175 128.208 93.4175V90.8862ZM129.98 86.5C129.747 86.5 129.558 86.3111 129.558 86.0781H132.089C132.089 84.9131 131.145 83.9688 129.98 83.9688V86.5ZM88.6471 84.9785C88.914 85.8421 89.7132 86.5 90.6886 86.5V83.9688C90.894 83.9688 91.0261 84.1034 91.0656 84.2313L88.6471 84.9785ZM129.558 91.3081C129.558 91.0751 129.747 90.8862 129.98 90.8862V93.4175C131.145 93.4175 132.089 92.4731 132.089 91.3081H129.558ZM120.333 97.0737C120.333 96.8407 120.522 96.6519 120.755 96.6519V99.1831C121.92 99.1831 122.865 98.2387 122.865 97.0737H120.333ZM91.0664 93.1548C91.0269 93.2828 90.8948 93.4175 90.6893 93.4175V90.8862C89.7138 90.8862 88.9145 91.5443 88.6478 92.408L91.0664 93.1548Z" fill="url(#paint3_linear_5004_33357)"/>
<ellipse cx="74.0392" cy="88.463" rx="3.54897" ry="3.54897" stroke="url(#paint4_linear_5004_33357)" stroke-width="2.53125" stroke-miterlimit="10"/>
<path d="M89.8564 118.191L88.6471 118.564L89.8564 118.191ZM89.8571 126.367L91.0664 126.741L89.8571 126.367ZM76.6357 137.381C83.4246 137.381 89.164 132.902 91.0664 126.741L88.6478 125.994C87.0637 131.124 82.2831 134.85 76.6357 134.85V137.381ZM61.5352 122.28C61.5352 130.62 68.2959 137.381 76.6357 137.381V134.85C69.6939 134.85 64.0664 129.222 64.0664 122.28H61.5352ZM76.6357 107.18C68.2959 107.18 61.5352 113.94 61.5352 122.28H64.0664C64.0664 115.338 69.6939 109.711 76.6357 109.711V107.18ZM91.0656 117.817C89.1624 111.657 83.4237 107.18 76.6357 107.18V109.711C82.2823 109.711 87.0624 113.435 88.6471 118.564L91.0656 117.817ZM129.98 117.555H90.6886V120.086H129.98V117.555ZM132.089 124.894V119.664H129.558V124.894H132.089ZM128.208 127.003H129.98V124.472H128.208V127.003ZM126.098 126.582V128.355H128.629V126.582H126.098ZM126.52 127.933H125.902V130.464H126.52V127.933ZM126.324 128.355V126.582H123.792V128.355H126.324ZM122.443 127.003H124.214V124.472H122.443V127.003ZM122.865 130.66V126.582H120.333V130.66H122.865ZM117.831 132.769H120.755V130.238H117.831V132.769ZM115.722 126.582V130.66H118.253V126.582H115.722ZM90.6893 127.003H116.144V124.472H90.6893V127.003ZM118.253 126.582C118.253 125.417 117.309 124.472 116.144 124.472V127.003C115.911 127.003 115.722 126.815 115.722 126.582H118.253ZM117.831 130.238C118.064 130.238 118.253 130.427 118.253 130.66H115.722C115.722 131.825 116.666 132.769 117.831 132.769V130.238ZM122.443 124.472C121.278 124.472 120.333 125.417 120.333 126.582H122.865C122.865 126.815 122.676 127.003 122.443 127.003V124.472ZM126.324 126.582C126.324 125.417 125.379 124.472 124.214 124.472V127.003C123.981 127.003 123.792 126.815 123.792 126.582H126.324ZM125.902 127.933C126.135 127.933 126.324 128.122 126.324 128.355H123.792C123.792 129.52 124.737 130.464 125.902 130.464V127.933ZM126.098 128.355C126.098 128.122 126.287 127.933 126.52 127.933V130.464C127.685 130.464 128.629 129.52 128.629 128.355H126.098ZM128.208 124.472C127.043 124.472 126.098 125.417 126.098 126.582H128.629C128.629 126.815 128.441 127.003 128.208 127.003V124.472ZM129.98 120.086C129.747 120.086 129.558 119.897 129.558 119.664H132.089C132.089 118.499 131.145 117.555 129.98 117.555V120.086ZM88.6471 118.564C88.914 119.428 89.7132 120.086 90.6886 120.086V117.555C90.894 117.555 91.0261 117.689 91.0656 117.817L88.6471 118.564ZM129.558 124.894C129.558 124.661 129.747 124.472 129.98 124.472V127.003C131.145 127.003 132.089 126.059 132.089 124.894H129.558ZM120.333 130.66C120.333 130.427 120.522 130.238 120.755 130.238V132.769C121.92 132.769 122.865 131.825 122.865 130.66H120.333ZM91.0664 126.741C91.0269 126.869 90.8948 127.003 90.6893 127.003V124.472C89.7138 124.472 88.9145 125.13 88.6478 125.994L91.0664 126.741Z" fill="url(#paint5_linear_5004_33357)"/>
<ellipse cx="74.0392" cy="122.049" rx="3.54897" ry="3.54897" stroke="url(#paint6_linear_5004_33357)" stroke-width="2.53125" stroke-miterlimit="10"/>
<defs>
<linearGradient id="paint0_linear_5004_33357" x1="-84.7751" y1="88.5937" x2="971.043" y2="88.5937" gradientUnits="userSpaceOnUse">
<stop stop-color="#03A9F4"/>
<stop offset="1" stop-color="#304FFE"/>
</linearGradient>
<linearGradient id="paint1_linear_5004_33357" x1="62.8027" y1="55.1084" x2="130.826" y2="55.1084" gradientUnits="userSpaceOnUse">
<stop stop-color="#03A9F4"/>
<stop offset="1" stop-color="#304FFE"/>
</linearGradient>
<linearGradient id="paint2_linear_5004_33357" x1="61.9155" y1="54.8771" x2="132.303" y2="54.8771" gradientUnits="userSpaceOnUse">
<stop stop-color="#03A9F4"/>
<stop offset="1" stop-color="#304FFE"/>
</linearGradient>
<linearGradient id="paint3_linear_5004_33357" x1="62.8008" y1="88.6943" x2="130.824" y2="88.6943" gradientUnits="userSpaceOnUse">
<stop stop-color="#03A9F4"/>
<stop offset="1" stop-color="#304FFE"/>
</linearGradient>
<linearGradient id="paint4_linear_5004_33357" x1="61.9136" y1="88.463" x2="132.301" y2="88.463" gradientUnits="userSpaceOnUse">
<stop stop-color="#03A9F4"/>
<stop offset="1" stop-color="#304FFE"/>
</linearGradient>
<linearGradient id="paint5_linear_5004_33357" x1="62.8008" y1="122.28" x2="130.824" y2="122.28" gradientUnits="userSpaceOnUse">
<stop stop-color="#03A9F4"/>
<stop offset="1" stop-color="#304FFE"/>
</linearGradient>
<linearGradient id="paint6_linear_5004_33357" x1="61.9136" y1="122.049" x2="132.301" y2="122.049" gradientUnits="userSpaceOnUse">
<stop stop-color="#03A9F4"/>
<stop offset="1" stop-color="#304FFE"/>
</linearGradient>
</defs>
</svg>
