<svg width="133" height="38" viewBox="0 0 133 38" fill="none" xmlns="http://www.w3.org/2000/svg">
<path fill-rule="evenodd" clip-rule="evenodd" d="M17.8573 2.14581L2.07149 29.9078L27.1335 29.9248L25.1337 26.6779H9.9778C9.25984 26.6779 8.81108 25.8942 9.17 25.2671L22.4038 2.14581L17.8573 2.14581ZM17.4971 0.578126L23.4807 0.578125C24.1987 0.578125 24.6474 1.36188 24.2885 1.98895L11.0547 25.1102H25.4795C25.802 25.1102 26.1016 25.2783 26.2718 25.5546L29.0446 30.0563C29.4306 30.6831 28.9833 31.4937 28.2516 31.4932L0.997925 31.4748C0.28141 31.4743 -0.166997 30.6931 0.189421 30.0663L16.688 1.05083C16.8542 0.758455 17.1629 0.578126 17.4971 0.578126Z" fill="white"/>
<path fill-rule="evenodd" clip-rule="evenodd" d="M3.66115 37.0957C3.3129 37.0957 2.99366 36.9001 2.83326 36.5884L0.105036 31.2863C-0.217146 30.6601 0.233435 29.9124 0.93293 29.9124L27.1064 29.9124L19.5474 17.628C19.3689 17.3379 19.3603 16.973 19.525 16.6746L22.2897 11.6649C22.6392 11.0315 23.538 11.0181 23.9059 11.6408L38.1071 35.6736C38.4776 36.3006 38.0296 37.0957 37.3058 37.0957L3.66115 37.0957ZM4.03903 35.5281L36.2114 35.5281L23.1231 13.3784L21.0611 17.1147L29.0166 30.0435C29.4022 30.6701 28.9553 31.4801 28.2241 31.4801L1.95614 31.4801L4.03903 35.5281Z" fill="white"/>
<path fill-rule="evenodd" clip-rule="evenodd" d="M37.5575 34.7448L39.8204 30.6496L23.6561 2.85511L10.8973 25.1173L14.8437 25.1173L22.2903 11.6693C22.6404 11.0369 23.5381 11.0242 23.9058 11.6463L37.5575 34.7448ZM38.3904 36.4581C38.0406 37.0911 37.1423 37.1043 36.7744 36.4818L23.1222 13.3824L16.0231 26.203C15.8583 26.5006 15.5467 26.685 15.2087 26.685L9.8197 26.685C9.1015 26.685 8.65277 25.9008 9.01215 25.2737L22.8447 1.13815C23.2024 0.513881 24.095 0.51101 24.4568 1.13298L41.3412 30.1657C41.5084 30.4532 41.5123 30.8084 41.3514 31.0995L38.3904 36.4581Z" fill="white"/>
<path d="M117.864 14.5469H120.003C120.253 14.5469 120.377 14.6097 120.502 14.7564L125.093 18.8207L129.871 14.7564C129.996 14.6097 130.121 14.5469 130.37 14.5469H132.302C132.614 14.5469 132.676 14.8402 132.489 15.0078L126.63 20.1615L132.614 25.42C132.8 25.5876 132.759 25.8809 132.447 25.8809H130.287C130.037 25.8809 129.913 25.8181 129.767 25.6714L124.865 21.3557L119.796 25.6714C119.671 25.8181 119.546 25.8809 119.297 25.8809H117.365C117.053 25.8809 117.012 25.5876 117.178 25.42L123.348 20.0149L117.677 15.0078C117.51 14.8402 117.552 14.5469 117.864 14.5469Z" fill="white"/>
<path d="M106.186 14.5469H112.211C115.015 14.5469 115.763 15.4268 115.763 17.9199V19.7844C115.763 20.6643 115.389 20.9576 114.579 20.9576H103.693V21.6071C103.693 23.1784 104.296 23.8069 106.414 23.8069H115.098C115.306 23.8069 115.41 23.9116 115.41 24.1211V25.5667C115.41 25.7762 115.306 25.8809 115.098 25.8809H106.186C102.467 25.8809 101.283 24.6868 101.283 21.7118V18.716C101.283 15.7201 102.467 14.5469 106.186 14.5469ZM103.693 18.6741V19.4073H112.958C113.249 19.4073 113.395 19.3026 113.395 18.9674V18.0037C113.395 16.8723 113.021 16.4533 111.754 16.4533H106.414C104.296 16.4533 103.693 17.0818 103.693 18.6741Z" fill="white"/>
<path d="M96.9833 10.1719H98.6245C98.8946 10.1719 99.0192 10.2976 99.0192 10.549V25.5074C99.0192 25.7588 98.8946 25.8845 98.6245 25.8845H96.9833C96.7132 25.8845 96.6094 25.7588 96.6094 25.5074V10.549C96.6094 10.2976 96.7132 10.1719 96.9833 10.1719Z" fill="white"/>
<path d="M91.8095 10.1719H93.4507C93.7207 10.1719 93.8454 10.2976 93.8454 10.549V25.5074C93.8454 25.7588 93.7207 25.8845 93.4507 25.8845H91.8095C91.5394 25.8845 91.4355 25.7588 91.4355 25.5074V10.549C91.4355 10.2976 91.5394 10.1719 91.8095 10.1719Z" fill="white"/>
<path d="M75.2702 14.5469H84.1825C87.8804 14.5469 89.0853 15.7201 89.0853 18.716V24.2259C89.0853 25.5667 88.7529 25.8809 87.5687 25.8809H77.784C75.3533 25.8809 74.6055 25.001 74.6055 22.9479V22.0051C74.6055 20.2872 75.3533 19.3235 77.784 19.3235H86.6547V18.8207C86.6547 17.2285 86.073 16.6209 83.954 16.6209H75.2702C75.0625 16.6209 74.9586 16.5162 74.9586 16.3067V14.8611C74.9586 14.6516 75.0625 14.5469 75.2702 14.5469ZM85.9483 23.9745C86.4885 23.9745 86.6547 23.7859 86.6547 23.1784V20.8738H78.4487C77.3477 20.8738 76.9738 21.3138 76.9738 22.1308V22.6127C76.9738 23.5555 77.3477 23.9745 78.4487 23.9745H85.9483Z" fill="white"/>
<path d="M48.0417 11.2188H50.2646C50.41 11.2188 50.4723 11.2816 50.5346 11.4492L54.274 23.307C54.2948 23.4327 54.3571 23.4537 54.461 23.4537H54.5857C54.6688 23.4537 54.7311 23.4327 54.7726 23.307L58.6367 12.2453C58.9067 11.4492 59.3015 11.2188 59.987 11.2188H61.6282C62.4384 11.2188 62.7916 11.4911 63.0616 12.2453L66.988 23.307C67.0296 23.4327 67.0919 23.4537 67.1958 23.4537H67.2996C67.4035 23.4537 67.4658 23.4327 67.5074 23.307L71.1845 11.4492C71.226 11.2607 71.3507 11.2188 71.4545 11.2188H73.6982C73.9059 11.2188 73.9267 11.4073 73.8644 11.6378L69.6264 24.5431C69.294 25.5906 68.9408 25.8839 68.2345 25.8839H66.2817C65.5546 25.8839 65.2637 25.5906 64.8898 24.5431L61.0881 13.7956C61.0673 13.6699 61.0257 13.649 60.9219 13.649H60.818C60.7141 13.649 60.6518 13.6699 60.631 13.7956L56.8085 24.5431C56.4346 25.5906 56.1437 25.8839 55.4166 25.8839H53.5054C52.6744 25.8839 52.342 25.6115 52.0096 24.5431L47.8963 11.6378C47.8132 11.4073 47.8547 11.2188 48.0417 11.2188Z" fill="white"/>
</svg>
