<svg width="233" height="64" viewBox="0 0 233 64" fill="none" xmlns="http://www.w3.org/2000/svg">
<mask id="mask0_5004_33251" style="mask-type:alpha" maskUnits="userSpaceOnUse" x="0" y="0" width="73" height="64">
<path fill-rule="evenodd" clip-rule="evenodd" d="M31.1468 3.13256L3.61061 51.1533L4.6117 51.154L47.2852 51.154L43.818 45.5665H26.5915C26.5711 45.5673 26.5506 45.5677 26.53 45.5677H17.1296C15.8768 45.5677 15.0941 44.2112 15.721 43.1265L38.8361 3.13256L31.1468 3.13256ZM41.8102 0.660406C41.5668 0.509847 41.2768 0.420898 40.956 0.420898L30.5185 0.420899C29.9355 0.4209 29.3971 0.73282 29.1071 1.23856L0.327598 51.4274C0.18479 51.6765 0.116054 51.9396 0.110043 52.1972C-0.0492001 52.608 -0.0451238 53.0868 0.185038 53.5304L4.94404 62.7016C5.22384 63.2408 5.78072 63.5792 6.38818 63.5792L65.0767 63.5792C65.4838 63.5792 65.841 63.4361 66.1163 63.2059C66.4592 63.0792 66.7655 62.8344 66.9672 62.4725L72.1323 53.2035C72.4129 52.7 72.4061 52.0856 72.1145 51.5884L42.6619 1.36956C42.4555 1.01751 42.1498 0.781195 41.8102 0.660406ZM25.894 42.8548H19.2805L41.387 4.55579L69.4617 52.4253L65.5145 59.5086L41.7024 19.549C41.0605 18.4719 39.4928 18.4951 38.8831 19.5907L38.3373 20.5713L25.894 42.8548ZM28.9998 42.8548H42.1353L35.2214 31.7131L28.9998 42.8548ZM40.3346 22.5587L36.74 29.0175L45.6823 43.4281C45.7341 43.4891 45.7818 43.5543 45.8247 43.6234L50.6614 51.4102C51.3348 52.4944 50.5546 53.8965 49.2782 53.8956L4.61678 53.8657H3.41403L7.04734 60.8675L63.1673 60.8675L40.3346 22.5587Z" fill="#1A2B3C"/>
</mask>
<g mask="url(#mask0_5004_33251)">
<rect y="-3.50098" width="72" height="75" fill="#1A2B3C"/>
</g>
<path d="M83.8029 18.8301H87.6803C87.934 18.8301 88.0427 18.9388 88.1514 19.2287L94.6743 39.7395C94.7105 39.9569 94.8193 39.9931 95.0005 39.9931H95.2179C95.3628 39.9931 95.4716 39.9569 95.544 39.7395L102.284 20.6057C102.755 19.2287 103.444 18.8301 104.64 18.8301H107.503C108.916 18.8301 109.532 19.3012 110.003 20.6057L116.852 39.7395C116.925 39.9569 117.033 39.9931 117.214 39.9931H117.396C117.577 39.9931 117.686 39.9569 117.758 39.7395L124.172 19.2287C124.245 18.9025 124.462 18.8301 124.643 18.8301H128.557C128.919 18.8301 128.956 19.1562 128.847 19.5548L121.454 41.8775C120.875 43.6894 120.258 44.1968 119.026 44.1968H115.62C114.352 44.1968 113.844 43.6894 113.192 41.8775L106.56 23.2874C106.524 23.0699 106.452 23.0337 106.271 23.0337H106.089C105.908 23.0337 105.799 23.0699 105.763 23.2874L99.0954 41.8775C98.4431 43.6894 97.9357 44.1968 96.6674 44.1968H93.3335C91.884 44.1968 91.3042 43.7257 90.7244 41.8775L83.5492 19.5548C83.4042 19.1562 83.4767 18.8301 83.8029 18.8301ZM131.298 24.5919H146.845C153.295 24.5919 155.397 26.6213 155.397 31.8033V41.334C155.397 43.6532 154.817 44.1968 152.751 44.1968H135.683C131.443 44.1968 130.139 42.6748 130.139 39.1234V37.4927C130.139 34.5212 131.443 32.8542 135.683 32.8542H151.157V31.9845C151.157 29.2304 150.142 28.1795 146.446 28.1795H131.298C130.936 28.1795 130.755 27.9983 130.755 27.6359V25.1355C130.755 24.7731 130.936 24.5919 131.298 24.5919ZM149.925 40.8991C150.867 40.8991 151.157 40.573 151.157 39.5221V35.5359H136.843C134.922 35.5359 134.27 36.2969 134.27 37.7101V38.5436C134.27 40.1743 134.922 40.8991 136.843 40.8991H149.925ZM160.149 17.0181H163.012C163.483 17.0181 163.7 17.2356 163.7 17.6704V43.5445C163.7 43.9793 163.483 44.1968 163.012 44.1968H160.149C159.678 44.1968 159.496 43.9793 159.496 43.5445V17.6704C159.496 17.2356 159.678 17.0181 160.149 17.0181ZM169.173 17.0181H172.036C172.507 17.0181 172.724 17.2356 172.724 17.6704V43.5445C172.724 43.9793 172.507 44.1968 172.036 44.1968H169.173C168.702 44.1968 168.521 43.9793 168.521 43.5445V17.6704C168.521 17.2356 168.702 17.0181 169.173 17.0181ZM185.227 24.5919H195.736C200.628 24.5919 201.933 26.1139 201.933 30.4263V33.6515C201.933 35.1735 201.281 35.6808 199.867 35.6808H180.879V36.8042C180.879 39.5221 181.93 40.6092 185.626 40.6092H200.773C201.136 40.6092 201.317 40.7904 201.317 41.1528V43.6532C201.317 44.0156 201.136 44.1968 200.773 44.1968H185.227C178.741 44.1968 176.675 42.1312 176.675 36.9854V31.8033C176.675 26.6213 178.741 24.5919 185.227 24.5919ZM180.879 31.7308V32.9992H197.041C197.548 32.9992 197.802 32.818 197.802 32.2382V30.5712C197.802 28.6144 197.15 27.8896 194.939 27.8896H185.626C181.93 27.8896 180.879 28.9767 180.879 31.7308ZM205.598 24.5919H209.33C209.765 24.5919 209.983 24.7006 210.2 24.9543L218.209 31.9845L226.544 24.9543C226.761 24.7006 226.978 24.5919 227.413 24.5919H230.783C231.327 24.5919 231.436 25.0993 231.11 25.3892L220.89 34.3038L231.327 43.3995C231.653 43.6894 231.581 44.1968 231.037 44.1968H227.268C226.834 44.1968 226.616 44.0881 226.362 43.8344L217.81 36.3693L208.968 43.8344C208.751 44.0881 208.533 44.1968 208.098 44.1968H204.728C204.185 44.1968 204.112 43.6894 204.402 43.3995L215.165 34.0501L205.272 25.3892C204.982 25.0993 205.054 24.5919 205.598 24.5919Z" fill="#1A2B3C"/>
</svg>
