<svg width="101" height="100" viewBox="0 0 101 100" fill="none" xmlns="http://www.w3.org/2000/svg">
<path d="M61.9766 50.0004C61.9766 46.6879 60.8047 43.8597 58.4609 41.516C56.1172 39.1722 53.2891 38.0003 49.9766 38.0003C46.6641 38.0003 43.8359 39.1722 41.4922 41.516C39.1484 43.8597 37.9766 46.6879 37.9766 50.0004C37.9766 53.3129 39.1484 56.141 41.4922 58.4848C43.8359 60.8286 46.6641 62.0004 49.9766 62.0004C53.2891 62.0004 56.1172 60.8286 58.4609 58.4848C60.8047 56.141 61.9766 53.3129 61.9766 50.0004ZM79.9766 45.7347V54.4066C79.9766 54.7192 79.8671 55.0238 79.6481 55.3208C79.4291 55.6178 79.1791 55.7818 78.8981 55.8128L71.6324 56.9378C71.2884 58.0315 70.7884 59.219 70.1324 60.5003C71.1949 62.0003 72.6012 63.7972 74.3512 65.8909C74.5702 66.2034 74.6797 66.5159 74.6797 66.8284C74.6797 67.2034 74.5702 67.5003 74.3512 67.7191C73.6324 68.6566 72.3434 70.055 70.484 71.9144C68.6246 73.7738 67.3981 74.7035 66.8043 74.7035C66.4603 74.7035 66.1322 74.594 65.8199 74.375L60.4293 70.1562C59.2731 70.75 58.0699 71.2343 56.8199 71.6093C56.4764 74.9843 56.1171 77.4062 55.7418 78.875C55.5228 79.625 55.0541 80 54.3356 80H45.6168C45.2728 80 44.9603 79.8827 44.6793 79.6482C44.3978 79.4137 44.2416 79.1403 44.2106 78.8279L43.1324 71.656C42.0699 71.3435 40.8981 70.8591 39.6168 70.2029L34.0856 74.3747C33.8671 74.5938 33.5546 74.7032 33.1481 74.7032C32.8046 74.7032 32.4764 74.5783 32.1637 74.3283C27.6637 70.172 25.4137 67.672 25.4137 66.8282C25.4137 66.5467 25.5231 66.2498 25.7418 65.9376C26.0543 65.5001 26.6949 64.6719 27.6637 63.4532C28.6324 62.2344 29.3668 61.2813 29.8668 60.5938C29.1481 59.2188 28.6012 57.9375 28.2262 56.75L21.1012 55.625C20.7887 55.595 20.5231 55.4465 20.3043 55.1795C20.0858 54.9143 19.9766 54.6098 19.9766 54.266V45.5941C19.9766 45.2816 20.0859 44.9769 20.3047 44.68C20.5234 44.383 20.7734 44.219 21.0547 44.188L28.3203 43.063C28.6643 41.9692 29.1643 40.7817 29.8203 39.5005C28.7578 38.0005 27.3516 36.2036 25.6016 34.1098C25.3828 33.7658 25.2734 33.4533 25.2734 33.1723C25.2734 32.7973 25.3828 32.4848 25.6016 32.2348C26.2891 31.2973 27.5703 29.9067 29.4453 28.0629C31.3203 26.2192 32.5547 25.2973 33.1484 25.2973C33.4924 25.2973 33.8206 25.4065 34.1328 25.625L39.5234 29.8438C40.5859 29.2813 41.7891 28.7813 43.1328 28.3438C43.4763 24.9688 43.8357 22.5625 44.2109 21.125C44.4299 20.375 44.8987 20 45.6172 20H54.3359C54.6799 20 54.9924 20.1173 55.2734 20.3518C55.5549 20.5863 55.7112 20.8597 55.7422 21.172L56.8203 28.3439C57.8828 28.6564 59.0547 29.1408 60.3359 29.7971L65.8672 25.6252C66.1172 25.4067 66.4297 25.2974 66.8047 25.2974C67.1482 25.2974 67.4763 25.4224 67.7891 25.6724C72.2891 29.8287 74.5391 32.3287 74.5391 33.1725C74.5391 33.4535 74.4296 33.7503 74.2106 34.0631C73.8356 34.5631 73.1793 35.4069 72.2418 36.5944C71.3043 37.7819 70.6012 38.7194 70.1324 39.4069C70.8512 40.9069 71.3824 42.1881 71.7262 43.2506L78.8512 44.3288C79.1637 44.3913 79.4293 44.5553 79.6481 44.8208C79.8671 45.0863 79.9766 45.3909 79.9766 45.7347Z" fill="white"/>
<g opacity="0.2">
<path d="M2.4588 54.4476C2.4588 78.1879 25.5743 98.1797 49.9394 98.1797C76.1621 98.1797 97.4199 75.6889 97.4199 51.9486" stroke="white" stroke-width="2"/>
<path d="M96.9611 45.7008C96.9611 21.9606 73.8456 1.96875 49.4806 1.96875C23.2578 1.96875 2 24.4595 2 48.1998" stroke="white" stroke-width="2"/>
<path d="M97.978 50.0671L100.509 44.8779L94.7495 45.2806L97.978 50.0671ZM96.9211 42.1208L97.1653 45.6129L98.1629 45.5432L97.9187 42.0511L96.9211 42.1208Z" fill="white"/>
<path d="M2.21338 49.2749L-0.421099 54.4123L5.34526 54.1251L2.21338 49.2749ZM3.11071 57.2408L2.93659 53.7445L1.93783 53.7942L2.11195 57.2905L3.11071 57.2408Z" fill="white"/>
</g>
</svg>
