<svg width="80" height="100" viewBox="0 0 80 100" fill="none" xmlns="http://www.w3.org/2000/svg">
<g clip-path="url(#clip0_5004_33274)">
<path d="M40.0364 1.0067L40.0427 1.00914L78.8991 16.1081C78.8994 16.1082 78.8996 16.1083 78.8999 16.1084C78.9505 16.1287 79 16.1884 79 16.2696V47.305C79 54.4714 77.3563 61.3215 74.2705 67.1229C66.8276 81.1131 55.3239 91.8306 40.0495 98.9867C40.0255 98.9978 40.0059 99 40 99C39.9916 99 39.9763 98.9987 39.9501 98.9865C24.6718 91.8313 13.173 81.1086 5.72963 67.1233C2.64361 61.316 1 54.4621 1 47.305V16.2696C1 16.1888 1.04957 16.1286 1.10079 16.1083C1.10094 16.1083 1.1011 16.1082 1.10126 16.1081L39.9623 1.00918L39.9686 1.00668C39.9911 0.997774 40.014 0.997774 40.0364 1.0067Z" stroke="white" stroke-width="2"/>
<path d="M39.6126 7.5733L7.99868 20.0787C7.56676 20.2509 7.27734 20.6837 7.27734 21.1677V45.3266C7.27734 54.1926 9.73519 62.6811 14.3928 69.8762C20.5599 79.4031 28.7749 86.7661 39.5059 92.379C39.6618 92.4628 39.8354 92.5 40.0046 92.5C40.1738 92.5 40.3475 92.4581 40.5033 92.379C51.7954 86.473 60.3182 78.6214 66.5648 68.3691C70.599 61.7463 72.7319 53.8013 72.7319 45.3969V21.1677C72.7319 20.6837 72.4469 20.2509 72.0106 20.0787L40.4012 7.5733C40.1474 7.47557 39.8664 7.47557 39.6126 7.5733Z" fill="white"/>
</g>
<defs>
<clipPath id="clip0_5004_33274">
<rect width="80" height="100" fill="white"/>
</clipPath>
</defs>
</svg>
