<svg width="231" height="190" viewBox="0 0 231 190" fill="none" xmlns="http://www.w3.org/2000/svg">
<path d="M161.096 53.0578L115.228 34.4776C114.922 34.3512 114.584 34.3512 114.278 34.4776L68.4045 53.0578C67.884 53.2703 67.5352 53.8046 67.5352 54.4021V92.5905C67.5352 101.582 69.5154 110.216 73.2559 117.554C82.1697 135.013 95.9406 148.388 114.192 157.298C114.369 157.384 114.557 157.43 114.75 157.43C114.938 157.43 115.131 157.384 115.308 157.298C133.554 148.388 147.331 135.019 156.244 117.554C159.985 110.223 161.965 101.593 161.965 92.5905V54.4021C161.965 53.8046 161.616 53.2703 161.096 53.0578Z" stroke="url(#paint0_linear_5004_33349)" stroke-width="2.53125" stroke-miterlimit="10"/>
<path d="M114.285 43.4495L76.7586 58.8182C76.2459 59.0298 75.9023 59.5617 75.9023 60.1566V89.8471C75.9023 100.743 78.8198 111.175 84.3485 120.018C91.6689 131.726 101.42 140.775 114.158 147.673C114.343 147.776 114.549 147.822 114.75 147.822C114.951 147.822 115.157 147.77 115.342 147.673C128.746 140.415 138.862 130.765 146.277 118.166C151.066 110.026 153.598 100.262 153.598 89.9334V60.1566C153.598 59.5617 153.259 59.0298 152.741 58.8182L115.221 43.4495C114.919 43.3293 114.586 43.3293 114.285 43.4495Z" stroke="url(#paint1_linear_5004_33349)" stroke-width="2.53125" stroke-miterlimit="10"/>
<defs>
<linearGradient id="paint0_linear_5004_33349" x1="67.5352" y1="95.9066" x2="161.965" y2="95.9066" gradientUnits="userSpaceOnUse">
<stop stop-color="#03A9F4"/>
<stop offset="1" stop-color="#304FFE"/>
</linearGradient>
<linearGradient id="paint1_linear_5004_33349" x1="75.9023" y1="95.5905" x2="153.598" y2="95.5905" gradientUnits="userSpaceOnUse">
<stop stop-color="#03A9F4"/>
<stop offset="1" stop-color="#304FFE"/>
</linearGradient>
</defs>
</svg>
